<svg width="151" height="151" viewBox="0 0 151 151" fill="none" xmlns="http://www.w3.org/2000/svg">
<g clip-path="url(#clip0)">
<path d="M142.903 44.082C142.903 37.3116 137.414 31.8229 130.644 31.8229H20.3562C13.5858 31.8229 8.09717 37.3116 8.09717 44.082V133.132H142.903V44.082H142.903Z" fill="#A2A3A6"/>
<path d="M91.1701 118.465C88.4381 118.465 85.8829 119.817 84.3459 122.076L83.7951 122.885H66.9101L66.3596 122.077C64.8213 119.815 62.27 118.465 59.535 118.465H34.4282C30.4929 118.465 27.3027 115.275 27.3027 111.34V37.8334C27.3027 35.649 27.8769 33.5995 28.8785 31.8229H20.3562C13.5858 31.8229 8.09717 37.3116 8.09717 44.082V133.132H22.4057H142.903V126.884V118.466H91.1701V118.465Z" fill="#7D7D7D"/>
<path d="M130.644 41.2744C132.195 41.2744 133.452 42.5314 133.452 44.082V112.515C133.452 113.844 132.374 114.921 131.045 114.921H19.9551C18.6263 114.921 17.5488 113.844 17.5488 112.515V44.082C17.5488 42.5314 18.8059 41.2744 20.3565 41.2744H130.644Z" fill="#E4E7FF"/>
<path d="M27.3024 111.34V41.2744H20.3565C18.8059 41.2744 17.5488 42.5314 17.5488 44.082V112.515C17.5488 113.844 18.626 114.921 19.9551 114.921H28.2688C27.6556 113.869 27.3024 112.646 27.3024 111.34Z" fill="#D3D8FF"/>
<path d="M106.518 59.2681C106.518 65.6082 101.378 70.748 95.0381 70.748H55.9624C49.6222 70.748 44.4824 65.6085 44.4824 59.2681V30.1822L75.5002 17.4972L106.518 31.8229V59.2681Z" fill="#49466B"/>
<path d="M89.2293 125.399L88.5651 126.375C87.5361 127.887 85.8251 128.793 83.9959 128.793H66.7084C64.8792 128.793 63.1685 127.888 62.1392 126.375L61.4749 125.399C61.0378 124.757 60.3112 124.373 59.5345 124.373H4.40462C3.19513 124.373 2.21484 125.353 2.21484 126.562V128.985C2.21484 136.113 7.9935 141.892 15.1216 141.892H135.878C143.006 141.892 148.785 136.113 148.785 128.985V126.562C148.785 125.353 147.804 124.373 146.595 124.373H91.1701C90.393 124.372 89.6665 124.757 89.2293 125.399Z" fill="#A2A3A6"/>
<path d="M71.1744 58.3504C72.4548 59.0377 73.8997 59.4013 75.3525 59.4013C76.8054 59.4013 78.2506 59.038 79.5309 58.3501L106.518 43.8596V31.8229L75.5002 17.4972L44.4824 30.1822V44.0182V59.2681C44.4824 65.6082 49.6222 70.748 55.9624 70.748H95.0384C99.2637 70.748 102.953 68.4637 104.946 65.0644C104.811 65.0692 104.676 65.0748 104.539 65.0748H65.4634C59.1233 65.0748 53.9835 59.935 53.9835 53.5948V52.2595C53.9835 50.8398 55.4986 49.9336 56.7495 50.6052L71.1744 58.3504Z" fill="#332D52"/>
<path d="M73.9682 9.4585L38.0877 28.7246C36.032 29.8284 36.032 32.7763 38.0877 33.8801L73.9682 53.1462C74.8327 53.6102 75.8721 53.6102 76.7363 53.1462L112.617 33.8801C114.673 32.7763 114.673 29.8284 112.617 28.7246L76.7363 9.4585C75.8721 8.9942 74.8324 8.9942 73.9682 9.4585Z" fill="#666DA2"/>
<path d="M54.0109 32.4157C51.9553 31.312 51.9553 28.364 54.0109 27.2603L81.9505 12.2582L76.7363 9.45851C75.8721 8.9945 74.8324 8.9945 73.9682 9.45851L38.0877 28.7246C36.032 29.8284 36.032 32.7763 38.0877 33.8801L73.9682 53.1459C74.8324 53.6102 75.8721 53.6102 76.7363 53.1459L84.6773 48.8821L54.0109 32.4157Z" fill="#49466B"/>
<path d="M111.944 89.769C115.167 89.769 117.779 87.1563 117.779 83.9333C117.779 80.7104 115.167 78.0977 111.944 78.0977C108.721 78.0977 106.108 80.7104 106.108 83.9333C106.108 87.1563 108.721 89.769 111.944 89.769Z" fill="#666DA2"/>
<path d="M112.5 31.5L112.5 82.5" stroke="#666DA2" stroke-width="3" stroke-linecap="round"/>
</g>
<defs>
<clipPath id="clip0">
<rect width="151" height="151" fill="white"/>
</clipPath>
</defs>
</svg>
