<svg width="184" height="184" viewBox="0 0 184 184" fill="none" xmlns="http://www.w3.org/2000/svg">
<g clip-path="url(#clip0)">
<path d="M82.085 107.225C82.8831 107.228 83.6812 107.254 84.4829 107.304L88.0889 107.537L102.465 92.01C104.414 89.9059 107.076 88.8248 109.754 88.8248C111.916 88.8248 114.089 89.5322 115.906 90.9688C119.781 94.0306 120.814 99.4794 118.326 103.749L98.3625 138.038C95.5511 142.863 92.0794 147.238 88.0707 151.047C84.0621 154.856 79.513 158.1 74.5503 160.661V177.629C74.5503 179.646 72.9152 181.281 70.8982 181.281H19.8651C17.8481 181.281 16.213 179.646 16.213 177.629V160.585C16.213 159.884 16.1042 159.195 15.8902 158.539C15.6798 157.882 15.3642 157.258 14.9542 156.688C11.2467 151.548 9.25146 145.366 9.25146 139.025V59.3279C9.25146 56.8139 10.2709 54.5393 11.9178 52.8924C13.5684 51.2454 15.843 50.226 18.357 50.226C23.385 50.226 27.4589 54.2999 27.4589 59.3279V50.2115C27.4589 47.6975 28.4783 45.4229 30.1253 43.7723C31.7723 42.1253 34.0505 41.1059 36.5645 41.1059C41.5925 41.1059 45.6664 45.1835 45.6664 50.2115V39.3284C45.6664 36.8144 46.6858 34.5398 48.3328 32.8892C50.0182 31.2074 52.3548 30.18 54.9323 30.2243C59.9306 30.3102 63.8739 34.5314 63.8739 39.5304V44.9223C63.8739 42.4083 64.8933 40.1337 66.5403 38.4867C68.2257 36.8013 70.5721 35.7732 73.1561 35.8222C78.15 35.9169 82.085 40.1373 82.085 45.1323V107.225Z" fill="#FFE0D1"/>
<path d="M82.085 107.225C82.8831 107.228 83.6812 107.254 84.4829 107.304L88.0889 107.537L102.465 92.01C104.414 89.9059 107.076 88.8248 109.754 88.8248C111.916 88.8248 114.089 89.5322 115.906 90.9688C119.781 94.0306 120.814 99.4794 118.326 103.749L98.3625 138.038C95.5511 142.863 92.0794 147.238 88.0707 151.047C84.0621 154.856 79.513 158.1 74.5503 160.661V177.629C74.5503 179.646 72.9152 181.281 70.8982 181.281H19.8651C17.8481 181.281 16.213 179.646 16.213 177.629V160.585C16.213 159.884 16.1042 159.195 15.8902 158.539C15.6798 157.882 15.3642 157.258 14.9542 156.688C11.2467 151.548 9.25146 145.366 9.25146 139.025V59.3279C9.25146 56.8139 10.2709 54.5393 11.9178 52.8924C13.5684 51.2454 15.843 50.226 18.357 50.226C23.385 50.226 27.4589 54.2999 27.4589 59.3279V50.2115C27.4589 47.6975 28.4783 45.4229 30.1253 43.7723C31.7723 42.1253 34.0505 41.1059 36.5645 41.1059C41.5925 41.1059 45.6664 45.1835 45.6664 50.2115V39.3284C45.6664 36.8144 46.6858 34.5398 48.3328 32.8892C50.0182 31.2074 52.3548 30.18 54.9323 30.2243C59.9306 30.3102 63.8739 34.5314 63.8739 39.5304V44.9223C63.8739 42.4083 64.8933 40.1337 66.5403 38.4867C68.2257 36.8013 70.5721 35.7732 73.1561 35.8222C78.15 35.9169 82.085 40.1373 82.085 45.1323V107.225Z" fill="#FFE0D1"/>
<path d="M29.3577 174.41C27.3407 174.41 25.7057 172.824 25.7057 170.867V154.334C25.7057 153.655 25.5968 152.986 25.3828 152.349C25.1724 151.712 24.8568 151.107 24.4469 150.554C20.7393 145.568 18.7441 139.571 18.7441 133.42V56.1105C18.7441 54.0035 19.5056 52.0667 20.7749 50.5492C20.0047 50.3374 19.195 50.2263 18.357 50.2263C15.843 50.2263 13.5684 51.2457 11.9178 52.8927C10.2709 54.5397 9.25146 56.8143 9.25146 59.3283V139.025C9.25146 145.367 11.2467 151.548 14.9542 156.689C15.3642 157.258 15.6798 157.882 15.8902 158.539C16.1042 159.196 16.213 159.885 16.213 160.585V177.629C16.213 179.646 17.8481 181.281 19.8651 181.281H70.8986C72.9156 181.281 74.5503 179.646 74.5503 177.629V174.41H29.3577Z" fill="#FFD1C2"/>
<path d="M84.043 154.407V154.529C84.1924 154.411 84.3419 154.293 84.4903 154.173C84.3404 154.25 84.1939 154.332 84.043 154.407Z" fill="#FCF0B6"/>
<path d="M82.7465 107.237C82.5263 107.233 82.3057 107.226 82.0852 107.225V99.9692H81.9937C71.157 99.9692 60.6233 103.819 52.3332 110.809L46.814 115.463L36.6597 125.012C33.3095 128.163 31.4097 132.558 31.4097 137.157V143.712C31.4097 149.38 36.0045 153.974 41.6721 153.974H82.7461V107.237H82.7465Z" fill="#FFD1C2"/>
<path d="M115.906 90.9688C119.781 94.0306 120.815 99.4794 118.326 103.749L98.3626 138.038C95.5512 142.863 92.0795 147.238 88.0708 151.047C84.0622 154.856 79.5131 158.1 74.5504 160.661V162.525H38.665V143.782C38.665 136.957 41.4845 130.435 46.4566 125.759L51.6414 120.883L57.0104 116.356C64.0445 110.424 72.9397 107.203 82.0851 107.225C82.8832 107.228 83.6813 107.254 84.483 107.304L88.089 107.537L102.466 92.01C104.414 89.9059 107.076 88.8248 109.754 88.8248C111.916 88.8248 114.089 89.5322 115.906 90.9688Z" fill="#FFE0D1"/>
<path d="M162.083 2.72078H105.616C98.621 2.72078 92.9502 8.39125 92.9502 15.3866V48.644C92.9502 55.6389 98.6207 61.3098 105.616 61.3098H108.912V66.2075C108.912 68.1367 111.036 69.3114 112.67 68.2858L123.789 61.3094H162.084C169.079 61.3094 174.75 55.6389 174.75 48.6436V15.3866C174.749 8.39162 169.078 2.72078 162.083 2.72078Z" fill="#7B86E9"/>
<path d="M117.942 51.8164C113.602 51.8164 110.084 48.2979 110.084 43.9577V6.80558C110.084 5.30951 110.502 3.91103 111.228 2.72078H105.616C98.621 2.72078 92.9502 8.39125 92.9502 15.3866V48.644C92.9502 55.6389 98.6207 61.3098 105.616 61.3098H108.912V66.2075C108.912 68.1367 111.036 69.3114 112.67 68.2858L123.789 61.3094H162.084C167.983 61.3094 172.94 57.2761 174.349 51.8164H117.942Z" fill="#6876F0"/>
<path d="M71.221 44.9227C71.221 42.4087 72.2404 40.1341 73.8874 38.4871C74.6782 37.6963 75.5561 37.0422 76.594 36.5844C75.4701 36.0881 74.2875 35.8207 72.9801 35.8207C70.4661 35.8207 68.1879 36.8401 66.5409 38.4871C64.8939 40.1341 63.8745 42.4087 63.8745 44.9227V90.9438C67.9321 90.9438 71.2213 87.6546 71.2213 83.597V44.9227H71.221Z" fill="#FFD1C2"/>
<path d="M34.792 51.6626C34.792 49.1486 35.8114 46.874 37.4584 45.2234C38.6418 44.04 40.1487 43.1781 41.8367 42.7877C40.3482 41.7266 38.5318 41.1059 36.5645 41.1059C34.0505 41.1059 31.7723 42.1253 30.1254 43.7723C28.4784 45.4229 27.459 47.6975 27.459 50.2115V59.3279V90.9434C31.5086 90.9434 34.7917 87.6603 34.7917 83.6107V51.6626H34.792Z" fill="#FFD1C2"/>
<path d="M53.141 40.03C53.141 37.516 54.1604 35.2414 55.8074 33.5908C56.7764 32.624 57.9187 31.8803 59.2399 31.4254C57.91 30.6647 56.414 30.2232 54.7721 30.2232C52.258 30.2232 49.9835 31.2426 48.3329 32.8895C46.6859 34.5402 45.6665 36.8147 45.6665 39.3287V50.2119V90.9438C49.7945 90.9438 53.141 87.5972 53.141 83.4693V40.03Z" fill="#FFD1C2"/>
<path d="M135.454 32.8532C137.324 32.4557 139.058 31.4961 140.389 30.0894C142.201 28.1752 143.123 25.6664 142.987 23.0254C142.73 18.0657 138.649 14.1022 133.695 14.0021C133.63 14.0005 133.566 14 133.501 14C128.774 14 124.747 17.495 124.091 22.2041C124.031 22.6416 124 23.0876 124 23.5298C124 24.6125 124.875 25.4898 125.954 25.4898C127.033 25.4898 127.908 24.6125 127.908 23.5298C127.908 23.2674 127.926 23.003 127.962 22.745C128.347 19.9752 130.718 17.9199 133.502 17.9199C133.54 17.9199 133.578 17.9202 133.616 17.9209C136.531 17.98 138.933 20.3113 139.084 23.2288C139.165 24.7857 138.622 26.2635 137.555 27.3907C136.488 28.5183 135.048 29.1395 133.5 29.1395C132.421 29.1395 131.546 30.0167 131.546 31.0994V36.04C131.546 37.1227 132.421 38 133.5 38C134.579 38 135.454 37.1227 135.454 36.04V32.8532Z" fill="white"/>
<path d="M133 41C131.895 41 131 41.8007 131 42.7888V44.2112C131 45.1993 131.895 46 133 46C134.105 46 135 45.1993 135 44.2112V42.7888C135 41.8007 134.105 41 133 41Z" fill="white"/>
</g>
<defs>
<clipPath id="clip0">
<rect width="184" height="184" fill="white"/>
</clipPath>
</defs>
</svg>
