<svg width="256" height="62" viewBox="0 0 256 62" fill="none" xmlns="http://www.w3.org/2000/svg">
<rect x="64" width="192" height="62" rx="5" fill="#4454E9"/>
<path d="M17.088 49.576C15.136 49.576 13.28 49.24 11.52 48.568C9.792 47.864 8.256 46.84 6.912 45.496C5.6 44.152 4.544 42.488 3.744 40.504C2.976 38.488 2.592 36.168 2.592 33.544C2.592 30.952 2.976 28.648 3.744 26.632C4.512 24.584 5.568 22.856 6.912 21.448C8.256 20.04 9.84 18.968 11.664 18.232C13.488 17.496 15.44 17.128 17.52 17.128C19.504 17.128 21.296 17.544 22.896 18.376C24.496 19.176 25.824 20.088 26.88 21.112L22.992 25.48C22.256 24.808 21.44 24.264 20.544 23.848C19.68 23.432 18.672 23.224 17.52 23.224C16.4 23.224 15.376 23.464 14.448 23.944C13.52 24.392 12.704 25.048 12 25.912C11.328 26.776 10.8 27.832 10.416 29.08C10.032 30.328 9.84 31.736 9.84 33.304C9.84 36.536 10.576 39.048 12.048 40.84C13.52 42.6 15.44 43.48 17.808 43.48C18.928 43.48 19.952 43.224 20.88 42.712C21.84 42.2 22.704 41.528 23.472 40.696L27.36 44.968C24.768 48.04 21.344 49.576 17.088 49.576ZM43.0853 49.576C40.9733 49.576 38.8773 49.208 36.7973 48.472C34.7493 47.704 32.8773 46.568 31.1813 45.064L35.2613 40.216C36.4453 41.176 37.7413 41.96 39.1493 42.568C40.5573 43.176 42.0293 43.48 43.5653 43.48C45.1013 43.48 46.2213 43.224 46.9253 42.712C47.6293 42.2 47.9813 41.544 47.9813 40.744C47.9813 40.2 47.8693 39.752 47.6453 39.4C47.4213 39.016 47.1013 38.68 46.6853 38.392C46.2693 38.104 45.7573 37.832 45.1493 37.576C44.5413 37.32 43.8693 37.032 43.1333 36.712L39.1013 34.984C38.2373 34.664 37.3893 34.248 36.5573 33.736C35.7573 33.224 35.0533 32.632 34.4453 31.96C33.8373 31.256 33.3413 30.456 32.9573 29.56C32.6053 28.632 32.4293 27.592 32.4293 26.44C32.4293 25.16 32.7013 23.96 33.2453 22.84C33.8213 21.688 34.6053 20.696 35.5973 19.864C36.6213 19 37.8373 18.328 39.2453 17.848C40.6533 17.368 42.2053 17.128 43.9013 17.128C45.8213 17.128 47.6773 17.48 49.4693 18.184C51.2613 18.888 52.8773 19.912 54.3173 21.256L50.7173 25.72C49.6293 24.92 48.5413 24.312 47.4533 23.896C46.3653 23.448 45.0533 23.224 43.5173 23.224C42.3333 23.224 41.3733 23.464 40.6373 23.944C39.9333 24.424 39.5813 25.128 39.5813 26.056C39.5813 26.984 40.0453 27.704 40.9733 28.216C41.9333 28.696 43.1813 29.208 44.7173 29.752L48.5093 31.384C50.5893 32.152 52.2213 33.208 53.4053 34.552C54.6213 35.896 55.2292 37.672 55.2292 39.88C55.2292 41.192 54.9573 42.44 54.4133 43.624C53.8693 44.776 53.0853 45.8 52.0613 46.696C51.0373 47.56 49.7733 48.264 48.2693 48.808C46.7653 49.32 45.0373 49.576 43.0853 49.576Z" fill="#4454E9"/>
<path d="M78.28 47V27.368H71.704V23.768L78.28 23.528V21.896C78.28 20.488 78.472 19.208 78.856 18.056C79.24 16.872 79.832 15.864 80.632 15.032C81.432 14.2 82.44 13.56 83.656 13.112C84.872 12.632 86.312 12.392 87.976 12.392C90.312 12.392 92.6 12.84 94.84 13.736L93.784 17.24C92.888 16.856 92.024 16.584 91.192 16.424C90.392 16.264 89.496 16.184 88.504 16.184C86.552 16.184 85.144 16.68 84.28 17.672C83.416 18.632 82.984 20.008 82.984 21.8V23.528H92.344V27.368H82.984V47H78.28ZM106.821 47.576C105.285 47.576 103.813 47.304 102.405 46.76C100.997 46.216 99.7492 45.416 98.6612 44.36C97.5732 43.304 96.7092 42.024 96.0692 40.52C95.4292 38.984 95.1092 37.24 95.1092 35.288C95.1092 33.336 95.4292 31.592 96.0692 30.056C96.7092 28.52 97.5732 27.224 98.6612 26.168C99.7492 25.112 100.997 24.312 102.405 23.768C103.813 23.224 105.285 22.952 106.821 22.952C108.357 22.952 109.829 23.224 111.237 23.768C112.645 24.312 113.893 25.112 114.981 26.168C116.069 27.224 116.933 28.52 117.573 30.056C118.213 31.592 118.533 33.336 118.533 35.288C118.533 37.24 118.213 38.984 117.573 40.52C116.933 42.024 116.069 43.304 114.981 44.36C113.893 45.416 112.645 46.216 111.237 46.76C109.829 47.304 108.357 47.576 106.821 47.576ZM106.821 43.688C108.933 43.688 110.597 42.92 111.813 41.384C113.029 39.848 113.637 37.816 113.637 35.288C113.637 32.76 113.029 30.728 111.813 29.192C110.597 27.656 108.933 26.888 106.821 26.888C104.709 26.888 103.045 27.656 101.829 29.192C100.613 30.728 100.005 32.76 100.005 35.288C100.005 37.816 100.613 39.848 101.829 41.384C103.045 42.92 104.709 43.688 106.821 43.688ZM124.466 47V23.528H128.402L128.786 29H128.93C130.146 27.08 131.618 25.592 133.346 24.536C135.106 23.48 137.043 22.952 139.155 22.952C140.082 22.952 140.898 23.032 141.603 23.192C142.306 23.32 143.026 23.56 143.762 23.912L142.706 27.992C141.906 27.736 141.219 27.544 140.642 27.416C140.066 27.288 139.33 27.224 138.434 27.224C136.738 27.224 135.106 27.704 133.538 28.664C131.97 29.624 130.53 31.288 129.218 33.656V47H124.466ZM159.104 47.576C157.312 47.576 155.648 47.304 154.112 46.76C152.576 46.216 151.232 45.416 150.08 44.36C148.928 43.304 148.016 42.008 147.344 40.472C146.704 38.936 146.384 37.192 146.384 35.24C146.384 33.32 146.72 31.608 147.392 30.104C148.064 28.568 148.944 27.272 150.032 26.216C151.152 25.16 152.432 24.36 153.872 23.816C155.312 23.24 156.816 22.952 158.384 22.952C160.112 22.952 161.648 23.224 162.992 23.768C164.336 24.312 165.456 25.08 166.352 26.072C167.28 27.032 167.984 28.2 168.464 29.576C168.944 30.92 169.184 32.408 169.184 34.04C169.184 34.552 169.168 35.032 169.136 35.48C169.104 35.928 169.056 36.312 168.992 36.632H151.136C151.392 39.064 152.304 40.872 153.872 42.056C155.472 43.24 157.424 43.832 159.728 43.832C161.04 43.832 162.24 43.656 163.328 43.304C164.416 42.92 165.488 42.408 166.544 41.768L168.224 44.792C167.008 45.592 165.632 46.264 164.096 46.808C162.592 47.32 160.928 47.576 159.104 47.576ZM158.528 26.696C157.632 26.696 156.784 26.84 155.984 27.128C155.184 27.384 154.464 27.784 153.824 28.328C153.184 28.872 152.64 29.544 152.192 30.344C151.744 31.144 151.424 32.072 151.232 33.128H164.912C164.752 30.984 164.096 29.384 162.944 28.328C161.824 27.24 160.352 26.696 158.528 26.696ZM180.253 47.576C179.133 47.576 178.077 47.416 177.085 47.096C176.125 46.776 175.293 46.328 174.589 45.752C173.885 45.144 173.325 44.424 172.909 43.592C172.525 42.76 172.333 41.832 172.333 40.808C172.333 39.496 172.637 38.344 173.245 37.352C173.885 36.36 174.861 35.512 176.173 34.808C177.517 34.104 179.229 33.528 181.309 33.08C183.421 32.632 185.949 32.296 188.893 32.072C188.829 30.632 188.349 29.4 187.453 28.376C186.589 27.352 185.117 26.84 183.037 26.84C181.597 26.84 180.189 27.112 178.813 27.656C177.469 28.2 176.221 28.808 175.069 29.48L173.293 26.264C173.933 25.88 174.653 25.496 175.453 25.112C176.253 24.696 177.101 24.328 177.997 24.008C178.925 23.688 179.869 23.432 180.829 23.24C181.821 23.048 182.829 22.952 183.853 22.952C187.117 22.952 189.565 23.832 191.197 25.592C192.829 27.352 193.645 29.784 193.645 32.888V47H189.757L189.373 43.976H189.229C187.981 44.936 186.573 45.784 185.005 46.52C183.469 47.224 181.885 47.576 180.253 47.576ZM181.597 43.784C182.845 43.784 184.061 43.512 185.245 42.968C186.461 42.424 187.677 41.656 188.893 40.664V35.096C186.589 35.288 184.669 35.544 183.133 35.864C181.597 36.152 180.365 36.536 179.437 37.016C178.541 37.464 177.901 37.976 177.517 38.552C177.133 39.128 176.941 39.768 176.941 40.472C176.941 41.656 177.389 42.504 178.285 43.016C179.213 43.528 180.317 43.784 181.597 43.784ZM210.666 47.576C208.842 47.576 207.13 47.304 205.53 46.76C203.962 46.216 202.602 45.416 201.45 44.36C200.298 43.304 199.386 42.024 198.714 40.52C198.074 38.984 197.754 37.24 197.754 35.288C197.754 33.336 198.106 31.592 198.81 30.056C199.514 28.52 200.474 27.224 201.69 26.168C202.906 25.112 204.298 24.312 205.866 23.768C207.466 23.224 209.162 22.952 210.954 22.952C212.874 22.952 214.554 23.288 215.994 23.96C217.434 24.6 218.634 25.384 219.594 26.312L217.29 29.336C216.362 28.568 215.402 27.976 214.41 27.56C213.418 27.112 212.346 26.888 211.194 26.888C209.946 26.888 208.794 27.096 207.738 27.512C206.682 27.896 205.77 28.456 205.002 29.192C204.266 29.928 203.69 30.824 203.274 31.88C202.858 32.904 202.65 34.04 202.65 35.288C202.65 36.536 202.842 37.688 203.226 38.744C203.642 39.768 204.218 40.648 204.954 41.384C205.722 42.12 206.618 42.696 207.642 43.112C208.666 43.496 209.802 43.688 211.05 43.688C212.49 43.688 213.77 43.416 214.89 42.872C216.042 42.328 217.082 41.672 218.01 40.904L220.074 43.976C218.73 45.128 217.258 46.024 215.658 46.664C214.058 47.272 212.394 47.576 210.666 47.576ZM223.751 47V12.968H228.503V21.992L228.215 27.272H228.359C229.479 26.056 230.711 25.032 232.055 24.2C233.431 23.368 235.031 22.952 236.855 22.952C239.607 22.952 241.623 23.768 242.903 25.4C244.183 27.032 244.823 29.384 244.823 32.456V47H240.071V33.08C240.071 31.032 239.703 29.528 238.967 28.568C238.231 27.576 236.967 27.08 235.175 27.08C233.927 27.08 232.807 27.4 231.815 28.04C230.823 28.648 229.719 29.576 228.503 30.824V47H223.751Z" fill="white"/>
</svg>
