
			<svg
				width="159"
				height="39"
				viewBox="0 0 159 39"
				fill="none"
				xmlns="http://www.w3.org/2000/svg"
			>
				<path
					d="M42.7017 27.6297H47.4701V18.1452H42.3999V15.0945H47.4701V12.5573C47.4701 11.933 47.5506 11.3692 47.7115 10.8658C47.8926 10.3422 48.1642 9.89922 48.5264 9.53676C48.8885 9.15416 49.3412 8.86218 49.8844 8.66081C50.4478 8.4393 51.1017 8.32855 51.8461 8.32855H57.0974V11.3793H51.3331V15.0945H57.0974V18.1452H51.3331V27.6297H56.4032V30.6804H42.7017V27.6297Z"
					fill="#4454E9"
				/>
				<path
					d="M65.3246 31.0428C64.1376 31.0428 63.0712 30.8515 62.1256 30.4689C61.2001 30.0863 60.4053 29.5426 59.7414 28.8379C59.0976 28.1331 58.5946 27.2773 58.2324 26.2704C57.8904 25.2636 57.7194 24.1359 57.7194 22.8874C57.7194 21.639 57.8904 20.5113 58.2324 19.5045C58.5946 18.4976 59.0976 17.6418 59.7414 16.937C60.4053 16.2322 61.2001 15.6885 62.1256 15.3059C63.0712 14.9233 64.1376 14.732 65.3246 14.732C66.4916 14.732 67.5479 14.9233 68.4935 15.3059C69.4391 15.6885 70.2338 16.2322 70.8777 16.937C71.5416 17.6418 72.0446 18.4976 72.3867 19.5045C72.7488 20.5113 72.9299 21.639 72.9299 22.8874C72.9299 24.1359 72.7488 25.2636 72.3867 26.2704C72.0446 27.2773 71.5416 28.1331 70.8777 28.8379C70.2338 29.5426 69.4391 30.0863 68.4935 30.4689C67.5479 30.8515 66.4916 31.0428 65.3246 31.0428ZM65.3246 28.0827C66.4312 28.0827 67.3064 27.7505 67.9502 27.086C68.5941 26.4013 68.916 25.4045 68.916 24.0956V21.6792C68.916 20.3703 68.5941 19.3836 67.9502 18.7191C67.3064 18.0345 66.4312 17.6922 65.3246 17.6922C64.218 17.6922 63.3428 18.0345 62.699 18.7191C62.0552 19.3836 61.7332 20.3703 61.7332 21.6792V24.0956C61.7332 25.4045 62.0552 26.4013 62.699 27.086C63.3428 27.7505 64.218 28.0827 65.3246 28.0827Z"
					fill="#4454E9"
				/>
				<path
					d="M74.3667 27.6297H78.2297V18.1452H74.3667V15.0945H82.0927V19.3534H82.3341C82.475 18.8097 82.6661 18.2862 82.9075 17.7828C83.1691 17.2592 83.491 16.8061 83.8733 16.4235C84.2757 16.0208 84.7586 15.6986 85.3219 15.457C85.8853 15.2153 86.5593 15.0945 87.3439 15.0945H89.034V18.7191H85.835C84.668 18.7191 83.7526 19.0615 83.0886 19.7461C82.4247 20.4308 82.0927 21.3067 82.0927 22.374V27.6297H87.4948V30.6804H74.3667V27.6297Z"
					fill="#4454E9"
				/>
				<path
					d="M97.3518 31.0428C96.1044 31.0428 94.9978 30.8515 94.032 30.4689C93.0663 30.0863 92.2514 29.5426 91.5875 28.8379C90.9437 28.1331 90.4507 27.2873 90.1087 26.3006C89.7666 25.2938 89.5956 24.1661 89.5956 22.9176C89.5956 21.649 89.7666 20.5113 90.1087 19.5045C90.4708 18.4976 90.9738 17.6418 91.6177 16.937C92.2615 16.2322 93.0361 15.6885 93.9415 15.3059C94.867 14.9233 95.9032 14.732 97.05 14.732C98.1767 14.732 99.1927 14.9233 100.098 15.3059C101.004 15.6684 101.768 16.192 102.392 16.8766C103.036 17.5613 103.529 18.3869 103.871 19.3534C104.213 20.32 104.384 21.3873 104.384 22.5552V23.8238H93.4586V24.2165C93.4586 25.3441 93.8107 26.2604 94.5149 26.9651C95.2191 27.6498 96.205 27.9921 97.4725 27.9921C98.4383 27.9921 99.2632 27.8008 99.9472 27.4182C100.651 27.0155 101.235 26.4919 101.698 25.8475L103.901 28.0525C103.337 28.8781 102.513 29.5829 101.426 30.1669C100.36 30.7509 99.0016 31.0428 97.3518 31.0428ZM97.0802 17.5713C95.9937 17.5713 95.1185 17.9137 94.4546 18.5983C93.7906 19.283 93.4586 20.1891 93.4586 21.3168V21.5282H100.521V21.2564C100.521 20.1287 100.209 19.2326 99.5851 18.5681C98.9815 17.9036 98.1465 17.5713 97.0802 17.5713Z"
					fill="#4454E9"
				/>
				<path
					d="M118.556 30.6804C117.611 30.6804 116.876 30.4488 116.353 29.9857C115.85 29.5024 115.548 28.8379 115.448 27.9921H115.297C115.015 28.9587 114.462 29.7138 113.637 30.2575C112.812 30.7811 111.796 31.0428 110.589 31.0428C109.02 31.0428 107.772 30.63 106.847 29.8044C105.921 28.9788 105.458 27.831 105.458 26.361C105.458 23.2197 107.762 21.649 112.369 21.649H115.116V20.6221C115.116 19.6354 114.874 18.8903 114.391 18.3869C113.909 17.8835 113.124 17.6317 112.037 17.6317C111.052 17.6317 110.257 17.823 109.653 18.2056C109.05 18.5882 108.537 19.0816 108.114 19.6857L105.911 17.813C106.394 16.9471 107.168 16.2222 108.235 15.6382C109.321 15.0341 110.72 14.732 112.43 14.732C114.482 14.732 116.082 15.2153 117.228 16.1819C118.395 17.1283 118.979 18.548 118.979 20.4408V27.7807H120.82V30.6804H118.556ZM111.887 28.3848C112.812 28.3848 113.577 28.1733 114.18 27.7505C114.804 27.3075 115.116 26.7134 115.116 25.9684V23.8842H112.46C110.347 23.8842 109.291 24.5487 109.291 25.8778V26.4819C109.291 27.1061 109.523 27.5793 109.985 27.9015C110.448 28.2237 111.082 28.3848 111.887 28.3848Z"
					fill="#4454E9"
				/>
				<path
					d="M129.258 31.0428C128.071 31.0428 127.005 30.8515 126.059 30.4689C125.114 30.0863 124.309 29.5426 123.645 28.8379C123.001 28.1331 122.498 27.2773 122.136 26.2704C121.794 25.2636 121.623 24.1359 121.623 22.8874C121.623 21.639 121.794 20.5113 122.136 19.5045C122.498 18.4976 123.001 17.6418 123.645 16.937C124.309 16.2322 125.104 15.6885 126.029 15.3059C126.975 14.9233 128.041 14.732 129.228 14.732C130.878 14.732 132.206 15.0744 133.212 15.759C134.218 16.4437 134.982 17.3498 135.505 18.4775L132.518 20.1086C132.236 19.4441 131.834 18.9104 131.31 18.5077C130.807 18.0848 130.113 17.8734 129.228 17.8734C128.081 17.8734 127.196 18.2056 126.572 18.8702C125.969 19.5347 125.667 20.4408 125.667 21.5886V24.1863C125.667 25.3139 125.969 26.2201 126.572 26.9047C127.196 27.5692 128.101 27.9015 129.288 27.9015C130.214 27.9015 130.948 27.6901 131.492 27.2672C132.055 26.8443 132.508 26.2805 132.85 25.5757L135.747 27.2974C135.224 28.4049 134.429 29.3111 133.363 30.0159C132.316 30.7005 130.948 31.0428 129.258 31.0428Z"
					fill="#4454E9"
				/>
				<path
					d="M137.697 8.32855H141.56V17.8432H141.711C142.053 16.9974 142.576 16.2725 143.28 15.6684C144.004 15.0442 145 14.732 146.268 14.732C147.797 14.732 149.034 15.2455 149.98 16.2725C150.946 17.2793 151.428 18.7292 151.428 20.6221V30.6804H147.565V21.1657C147.565 18.9104 146.59 17.7828 144.638 17.7828C144.236 17.7828 143.853 17.8331 143.491 17.9338C143.129 18.0345 142.797 18.1956 142.495 18.4171C142.214 18.6184 141.982 18.8702 141.801 19.1722C141.64 19.4743 141.56 19.8367 141.56 20.2596V30.6804H137.697V8.32855Z"
					fill="#4454E9"
				/>
				<path
					d="M38.6143 5C38.6143 2.23858 40.8528 0 43.6143 0H154C156.761 0 159 2.23858 159 5V33.6143C159 36.3757 156.761 38.6143 154 38.6143H43.6143C40.8528 38.6143 38.6143 36.3757 38.6143 33.6143V5Z"
					fill="white"
				/>
				<path
					d="M8.96605 31.0428C7.75871 31.0428 6.61073 30.8311 5.52214 30.4078C4.45334 29.9642 3.50329 29.3191 2.672 28.4724C1.86051 27.6256 1.20735 26.5773 0.712534 25.3273C0.237511 24.0572 0 22.5955 0 20.9424C0 19.3094 0.237511 17.8578 0.712534 16.5877C1.18756 15.2974 1.84071 14.2087 2.672 13.3217C3.50329 12.4346 4.48303 11.7592 5.61121 11.2955C6.73938 10.8318 7.94673 10.6 9.23325 10.6C10.4604 10.6 11.5688 10.8621 12.5584 11.3862C13.548 11.8903 14.3694 12.4648 15.0226 13.11L12.6178 15.8619C12.1626 15.4385 11.6579 15.0958 11.1037 14.8337C10.5693 14.5716 9.94579 14.4406 9.23325 14.4406C8.54051 14.4406 7.90715 14.5918 7.33316 14.8942C6.75918 15.1764 6.25447 15.5897 5.81903 16.1341C5.40338 16.6784 5.07681 17.3437 4.83929 18.13C4.60178 18.9162 4.48303 19.8033 4.48303 20.7912C4.48303 22.8274 4.93826 24.41 5.84872 25.539C6.75918 26.6478 7.94673 27.2022 9.41139 27.2022C10.1041 27.2022 10.7375 27.041 11.3115 26.7184C11.9053 26.3958 12.4397 25.9724 12.9147 25.4483L15.3195 28.1397C13.7163 30.0751 11.5985 31.0428 8.96605 31.0428Z"
					fill="white"
				/>
				<path
					d="M25.0459 31.0428C23.7395 31.0428 22.4431 30.811 21.1566 30.3473C19.8899 29.8634 18.732 29.1477 17.683 28.2002L20.2066 25.1459C20.9389 25.7507 21.7405 26.2446 22.6114 26.6277C23.4822 27.0107 24.3927 27.2022 25.3427 27.2022C26.2928 27.2022 26.9855 27.041 27.421 26.7184C27.8564 26.3958 28.0741 25.9825 28.0741 25.4785C28.0741 25.1358 28.0048 24.8535 27.8663 24.6318C27.7277 24.3898 27.5298 24.1781 27.2725 23.9967C27.0152 23.8153 26.6985 23.6439 26.3225 23.4826C25.9464 23.3213 25.5308 23.1399 25.0755 22.9383L22.5817 21.8496C22.0473 21.648 21.5228 21.3859 21.0082 21.0633C20.5133 20.7408 20.0779 20.3678 19.7018 19.9444C19.3258 19.5009 19.019 18.9969 18.7815 18.4324C18.5638 17.8477 18.4549 17.1925 18.4549 16.4667C18.4549 15.6603 18.6231 14.9043 18.9596 14.1986C19.3159 13.4729 19.8008 12.8479 20.4144 12.3237C21.0477 11.7794 21.7999 11.356 22.6707 11.0536C23.5416 10.7512 24.5016 10.6 25.5506 10.6C26.7381 10.6 27.8861 10.8217 28.9945 11.2653C30.1029 11.7088 31.1024 12.3539 31.9931 13.2007L29.7664 16.0131C29.0934 15.5091 28.4205 15.126 27.7475 14.8639C27.0746 14.5817 26.2631 14.4406 25.3131 14.4406C24.5807 14.4406 23.9869 14.5918 23.5317 14.8942C23.0963 15.1966 22.8786 15.6401 22.8786 16.2248C22.8786 16.8094 23.1656 17.2631 23.7395 17.5856C24.3333 17.888 25.1052 18.2106 26.0553 18.5533L28.4007 19.5815C29.6872 20.0654 30.6966 20.7307 31.429 21.5774C32.1811 22.4242 32.5571 23.5431 32.5571 24.9342C32.5571 25.7608 32.3889 26.547 32.0524 27.293C31.716 28.0187 31.231 28.6639 30.5977 29.2284C29.9643 29.7727 29.1825 30.2162 28.2523 30.559C27.322 30.8815 26.2532 31.0428 25.0459 31.0428Z"
					fill="white"
				/>
				<path
					d="M47.2987 29.9138V17.2397H43.1572V14.9156L47.2987 14.7607V13.7071C47.2987 12.7981 47.4196 11.9717 47.6615 11.228C47.9033 10.4636 48.2761 9.81288 48.78 9.27576C49.2838 8.73863 49.9186 8.32545 50.6845 8.03623C51.4503 7.72635 52.3572 7.57141 53.4051 7.57141C54.8763 7.57141 56.3173 7.86063 57.728 8.43908L57.0629 10.7012C56.4987 10.4533 55.9545 10.2777 55.4305 10.1744C54.9267 10.0711 54.3624 10.0195 53.7377 10.0195C52.5083 10.0195 51.6216 10.3397 51.0774 10.9801C50.5333 11.5999 50.2612 12.4882 50.2612 13.6451V14.7607H56.156V17.2397H50.2612V29.9138H47.2987Z"
					fill="#4454E9"
				/>
				<path
					d="M65.2736 30.2857C64.3063 30.2857 63.3792 30.1101 62.4925 29.7589C61.6058 29.4077 60.8198 28.8912 60.1346 28.2095C59.4494 27.5278 58.9052 26.7014 58.5022 25.7304C58.0991 24.7388 57.8976 23.6129 57.8976 22.3527C57.8976 21.0926 58.0991 19.9667 58.5022 18.975C58.9052 17.9834 59.4494 17.1467 60.1346 16.465C60.8198 15.7833 61.6058 15.2668 62.4925 14.9156C63.3792 14.5644 64.3063 14.3888 65.2736 14.3888C66.241 14.3888 67.168 14.5644 68.0548 14.9156C68.9415 15.2668 69.7275 15.7833 70.4127 16.465C71.0979 17.1467 71.6421 17.9834 72.0451 18.975C72.4482 19.9667 72.6497 21.0926 72.6497 22.3527C72.6497 23.6129 72.4482 24.7388 72.0451 25.7304C71.6421 26.7014 71.0979 27.5278 70.4127 28.2095C69.7275 28.8912 68.9415 29.4077 68.0548 29.7589C67.168 30.1101 66.241 30.2857 65.2736 30.2857ZM65.2736 27.7757C66.6038 27.7757 67.6517 27.2799 68.4175 26.2882C69.1834 25.2966 69.5663 23.9848 69.5663 22.3527C69.5663 20.7207 69.1834 19.4089 68.4175 18.4172C67.6517 17.4256 66.6038 16.9298 65.2736 16.9298C63.9435 16.9298 62.8956 17.4256 62.1297 18.4172C61.3639 19.4089 60.981 20.7207 60.981 22.3527C60.981 23.9848 61.3639 25.2966 62.1297 26.2882C62.8956 27.2799 63.9435 27.7757 65.2736 27.7757Z"
					fill="#4454E9"
				/>
				<path
					d="M76.3864 29.9138V14.7607H78.8653L79.1071 18.2933H79.1978C79.9636 17.0538 80.8907 16.0931 81.9789 15.4114C83.0874 14.7297 84.3066 14.3888 85.6367 14.3888C86.2212 14.3888 86.7351 14.4404 87.1785 14.5437C87.6218 14.6264 88.0753 14.7813 88.5388 15.0086L87.8737 17.6425C87.3699 17.4773 86.9366 17.3533 86.5739 17.2707C86.2111 17.1881 85.7476 17.1467 85.1833 17.1467C84.1152 17.1467 83.0874 17.4566 82.0998 18.0764C81.1123 18.6961 80.2054 19.7704 79.3792 21.2991V29.9138H76.3864Z"
					fill="#4454E9"
				/>
				<path
					d="M98.2005 30.2857C97.072 30.2857 96.024 30.1101 95.0566 29.7589C94.0893 29.4077 93.2428 28.8912 92.5173 28.2095C91.7918 27.5278 91.2174 26.6911 90.7942 25.6995C90.3912 24.7078 90.1896 23.5819 90.1896 22.3218C90.1896 21.0822 90.4012 19.977 90.8245 19.006C91.2477 18.0144 91.8019 17.1777 92.4871 16.496C93.1925 15.8142 93.9986 15.2978 94.9055 14.9466C95.8124 14.5747 96.7596 14.3888 97.7471 14.3888C98.8354 14.3888 99.8027 14.5644 100.649 14.9156C101.496 15.2668 102.201 15.7626 102.765 16.403C103.35 17.0228 103.793 17.7768 104.095 18.6652C104.398 19.5328 104.549 20.4935 104.549 21.5471C104.549 21.8776 104.539 22.1875 104.519 22.4767C104.498 22.7659 104.468 23.0138 104.428 23.2204H93.1824C93.3436 24.7905 93.918 25.9577 94.9055 26.7221C95.9131 27.4864 97.1425 27.8686 98.5935 27.8686C99.4198 27.8686 100.176 27.755 100.861 27.5278C101.546 27.2799 102.221 26.9493 102.886 26.5361L103.944 28.4884C103.178 29.0049 102.312 29.4387 101.344 29.7899C100.397 30.1204 99.3493 30.2857 98.2005 30.2857ZM97.8378 16.8059C97.2735 16.8059 96.7394 16.8988 96.2356 17.0848C95.7318 17.25 95.2783 17.5083 94.8752 17.8595C94.4722 18.2107 94.1296 18.6445 93.8474 19.161C93.5653 19.6774 93.3638 20.2765 93.2428 20.9583H101.858C101.758 19.5741 101.344 18.5412 100.619 17.8595C99.9136 17.1571 98.9865 16.8059 97.8378 16.8059Z"
					fill="#4454E9"
				/>
				<path
					d="M111.52 30.2857C110.815 30.2857 110.15 30.1824 109.525 29.9758C108.92 29.7692 108.396 29.48 107.953 29.1081C107.51 28.7156 107.157 28.2508 106.895 27.7137C106.653 27.1766 106.532 26.5775 106.532 25.9164C106.532 25.0694 106.724 24.3257 107.107 23.6852C107.51 23.0448 108.124 22.4974 108.951 22.0429C109.797 21.5884 110.875 21.2165 112.185 20.9273C113.515 20.6381 115.107 20.4211 116.961 20.2765C116.921 19.3469 116.619 18.5515 116.055 17.8905C115.51 17.2294 114.583 16.8988 113.273 16.8988C112.367 16.8988 111.48 17.0744 110.613 17.4256C109.767 17.7768 108.981 18.1693 108.255 18.6032L107.137 16.527C107.54 16.2791 107.993 16.0312 108.497 15.7833C109.001 15.5147 109.535 15.2771 110.099 15.0705C110.684 14.8639 111.278 14.6987 111.883 14.5747C112.508 14.4508 113.142 14.3888 113.787 14.3888C115.843 14.3888 117.385 14.9569 118.412 16.0931C119.44 17.2294 119.954 18.7994 119.954 20.8033V29.9138H117.506L117.264 27.9616H117.173C116.387 28.5814 115.5 29.1288 114.513 29.604C113.545 30.0585 112.548 30.2857 111.52 30.2857ZM112.367 27.8376C113.152 27.8376 113.918 27.662 114.664 27.3108C115.43 26.9596 116.196 26.4638 116.961 25.8234V22.2288C115.51 22.3527 114.301 22.518 113.334 22.7246C112.367 22.9105 111.591 23.1584 111.006 23.4683C110.442 23.7575 110.039 24.0881 109.797 24.4599C109.555 24.8318 109.434 25.245 109.434 25.6995C109.434 26.4638 109.716 27.0113 110.281 27.3418C110.865 27.6724 111.56 27.8376 112.367 27.8376Z"
					fill="#4454E9"
				/>
				<path
					d="M130.674 30.2857C129.525 30.2857 128.447 30.1101 127.439 29.7589C126.452 29.4077 125.595 28.8912 124.87 28.2095C124.144 27.5278 123.57 26.7014 123.147 25.7304C122.744 24.7388 122.542 23.6129 122.542 22.3527C122.542 21.0926 122.764 19.9667 123.207 18.975C123.651 17.9834 124.255 17.1467 125.021 16.465C125.787 15.7833 126.663 15.2668 127.651 14.9156C128.659 14.5644 129.727 14.3888 130.855 14.3888C132.065 14.3888 133.123 14.6057 134.029 15.0395C134.936 15.4527 135.692 15.9589 136.297 16.558L134.846 18.5102C134.261 18.0144 133.657 17.6322 133.032 17.3637C132.407 17.0744 131.732 16.9298 131.007 16.9298C130.221 16.9298 129.495 17.0641 128.83 17.3327C128.165 17.5806 127.591 17.9421 127.107 18.4172C126.643 18.8924 126.281 19.4708 126.019 20.1526C125.757 20.8137 125.626 21.547 125.626 22.3527C125.626 23.1584 125.747 23.9021 125.988 24.5839C126.25 25.245 126.613 25.8131 127.077 26.2882C127.56 26.7634 128.125 27.1352 128.769 27.4038C129.414 27.6517 130.13 27.7757 130.916 27.7757C131.823 27.7757 132.629 27.6001 133.334 27.2489C134.06 26.8977 134.715 26.4742 135.299 25.9783L136.599 27.9616C135.753 28.7053 134.826 29.2838 133.818 29.6969C132.81 30.0894 131.762 30.2857 130.674 30.2857Z"
					fill="#4454E9"
				/>
				<path
					d="M138.915 29.9138V7.94327H141.908V13.769L141.726 17.1777H141.817C142.522 16.3927 143.298 15.7316 144.145 15.1945C145.011 14.6574 146.019 14.3888 147.168 14.3888C148.901 14.3888 150.17 14.9156 150.977 15.9692C151.783 17.0228 152.186 18.5412 152.186 20.5244V29.9138H149.193V20.9273C149.193 19.6051 148.961 18.6342 148.498 18.0144C148.034 17.374 147.238 17.0538 146.11 17.0538C145.324 17.0538 144.618 17.2604 143.994 17.6735C143.369 18.0661 142.673 18.6652 141.908 19.4708V29.9138H138.915Z"
					fill="#4454E9"
				/>
			</svg>