<svg width="170" height="170" viewBox="0 0 170 170" fill="none" xmlns="http://www.w3.org/2000/svg">
<g clip-path="url(#clip0)">
<path d="M129.809 134.123L141.557 142.203C146.532 145.624 149.503 151.274 149.503 157.311V165.55C149.503 166.64 148.619 167.523 147.529 167.523H78.6398C77.5497 167.523 76.666 166.64 76.666 165.55V157.311C76.666 151.274 79.6374 145.624 84.6115 142.203L96.3603 134.123C96.3603 134.123 101.733 129.954 101.857 130.141C101.981 130.327 113.593 136.847 113.593 136.847L124.211 130.762L129.809 134.123Z" fill="#C7CCFF"/>
<path d="M103.021 109.675H123.148V135.861H103.021V109.675Z" fill="#EF948C"/>
<path d="M138.314 93.2879L140.034 81.0624C141.079 73.6348 135.938 66.7549 128.519 65.6516L127.053 65.4334C127.053 65.4334 113.522 63.6383 113.085 63.9314C112.647 64.2245 114.504 104.183 114.601 103.89C114.699 103.597 137.547 99.9829 137.547 99.9829L138.314 93.2879Z" fill="#332D52"/>
<path d="M133.063 81.6946L133.103 81.5767C134.63 76.8336 134.626 71.8654 133.159 67.2263C131.758 66.4446 130.199 65.9012 128.519 65.6513L127.052 65.4331C127.052 65.4331 113.522 63.6379 113.084 63.9311C112.697 64.1905 114.108 95.5607 114.504 102.526L126.363 100.845L133.063 81.6946Z" fill="#49466B"/>
<path d="M128.39 80.0595C131.641 69.9603 125.869 59.1781 115.662 56.2839L115.041 56.108C105.68 53.4539 95.6933 57.3185 90.5581 65.5826C85.4888 73.7401 84.654 83.8383 88.3146 92.7174L91.0176 100.857L122.685 96.3655L128.39 80.0595Z" fill="#332D52"/>
<path d="M134.283 104.369C137.5 104.369 140.108 101.761 140.108 98.5433C140.108 95.326 137.5 92.7177 134.283 92.7177H119.782V104.369H134.283V104.369Z" fill="#EF948C"/>
<path d="M73.6398 82.5928L85.3886 90.6727C90.3628 94.0937 93.3341 99.7436 93.3341 105.78V113.966C93.3341 115.086 92.4267 115.993 91.3072 115.993H22.5245C21.405 115.993 20.4976 115.086 20.4976 113.966V105.78C20.4976 99.7436 23.4689 94.0937 28.4431 90.6727L40.1919 82.5928L46.8523 78.7252L56.9158 85.3753C56.9158 85.3753 68.0572 79.1028 68.3923 79.361C68.7274 79.6191 73.6398 82.5928 73.6398 82.5928Z" fill="#C7CCFF"/>
<path d="M91.8866 104.369C88.6693 104.369 86.061 101.761 86.061 98.5433C86.061 95.326 88.6693 92.7177 91.8866 92.7177H105.309V104.369H91.8866V104.369Z" fill="#EF948C"/>
<path d="M46.8521 56.6352H66.9792V90.6014H46.8521V56.6352Z" fill="#EF948C"/>
<path d="M80.7115 41.7985L82.5268 38.2527C83.8631 35.6428 84.1447 32.6193 83.3141 29.8074L83.0157 28.7973L83.9849 24.5332C84.8997 20.5077 83.5726 16.3021 80.5128 13.5308L78.9731 12.1363C77.0515 7.8498 72.7023 5.17587 68.01 5.39606L66.3654 5.4733L60.9185 3.2962C58.1957 2.20781 55.1586 2.20781 52.4358 3.2962L46.9889 5.4733L45.3443 5.39606C40.6521 5.17587 36.3028 7.8498 34.3812 12.1363L32.8415 13.5308C29.7817 16.3017 28.4546 20.5077 29.3694 24.5332L30.3386 28.7973L30.0402 29.8074C29.2093 32.6193 29.4912 35.6428 30.8275 38.2527L32.7468 42.0015L36.519 49.233H77.8633L80.7115 41.7985Z" fill="#332D52"/>
<path d="M35.7176 52.8386C32.5003 52.8386 29.8921 50.2303 29.8921 47.013C29.8921 43.7957 32.5003 41.1875 35.7176 41.1875H48.3561V52.8389H35.7176V52.8386Z" fill="#EF948C"/>
<path d="M78.1136 52.8386C81.3309 52.8386 83.9391 50.2303 83.9391 47.013C83.9391 43.7957 81.3309 41.1875 78.1136 41.1875H62.0234V52.8389H78.1136V52.8386Z" fill="#EF948C"/>
<path d="M113.085 122.155C123.5 122.155 131.943 113.712 131.943 103.297V90.1561C131.943 85.4562 129.893 80.9901 126.328 77.9263L123.744 75.7046C123.143 75.1883 122.26 75.1751 121.644 75.6726L118.885 77.9012H106.015C99.5049 77.9012 94.2271 83.1791 94.2271 89.6896V103.298C94.2267 113.712 102.67 122.155 113.085 122.155Z" fill="#F2A8A2"/>
<path d="M108.557 84.0925H126.16C127.46 84.0925 128.726 83.6865 129.783 82.9308L130.116 82.6994C129.179 80.9043 127.9 79.2768 126.329 77.9263L123.744 75.7046C123.144 75.1883 122.26 75.1751 121.644 75.6726L118.885 77.9012H106.016C99.5054 77.9012 94.2275 83.1791 94.2275 89.6896V90.4093C97.5046 86.5727 102.703 84.0925 108.557 84.0925Z" fill="#EF948C"/>
<path d="M116.976 149.144L119.575 167.524H106.594L109.193 149.144L110.044 142.752L116.251 142.239L116.976 149.144Z" fill="#7B86E9"/>
<path d="M129.809 134.123L124.212 130.762L113.593 136.847C113.593 136.847 101.982 130.327 101.858 130.141C101.733 129.955 96.3608 134.123 96.3608 134.123L92.2856 136.926L84.5302 142.259C79.6075 145.645 76.6665 151.237 76.6665 157.211V165.739C76.6665 166.725 77.4657 167.524 78.4514 167.524H84.3777V161.884C84.3777 155.91 87.3186 150.318 92.2413 146.933L96.6642 143.891C96.9659 143.683 97.3776 143.751 97.5968 144.044L97.7787 144.287C98.4864 145.233 99.3979 146.023 100.473 146.512C102.13 147.267 103.929 147.371 105.577 146.869L113.084 144.585L120.62 146.878C121.273 147.077 121.952 147.178 122.635 147.178H122.758C124.942 147.178 126.998 146.148 128.306 144.399L133.891 136.931L129.809 134.123Z" fill="#B3BAFF"/>
<path d="M119.575 142.226L118.175 147.7C117.958 148.549 117.193 149.144 116.316 149.144H109.853C108.976 149.144 108.211 148.549 107.994 147.7L106.594 142.226L104.83 135.334H122.169L119.575 142.226Z" fill="#7B86E9"/>
<path d="M110.905 135.334H104.83L106.594 142.226L107.622 146.247L112.317 144.818C112.818 144.666 113.352 144.666 113.852 144.818L118.547 146.247L119.575 142.226L122.169 135.334H116.234L113.593 136.847C113.593 136.847 112.463 136.212 110.905 135.334Z" fill="#7B86E9"/>
<path d="M113.085 132.526L103.021 127.592C102.313 127.245 101.467 127.35 100.866 127.86L96.6654 131.425C95.8669 132.102 95.7335 133.284 96.3607 134.123L101.771 141.357C102.318 142.088 103.263 142.398 104.136 142.132L113.085 139.409L116.251 137.25V133.235L113.085 132.526Z" fill="#F9F7F7"/>
<path d="M123.149 127.592L113.085 132.526V139.409L122.034 142.132C122.907 142.398 123.852 142.088 124.399 141.357L129.809 134.123C130.436 133.285 130.303 132.102 129.505 131.425L125.304 127.86C124.702 127.35 123.856 127.245 123.149 127.592Z" fill="#F9F7F7"/>
<path d="M75.7734 34.2501V51.767C75.7734 62.1821 67.3304 70.6251 56.9153 70.6251C46.5002 70.6251 38.0571 62.1821 38.0571 51.767V33.783C38.0571 32.2017 39.5159 31.0239 41.0618 31.3566L41.9366 31.5451C44.1035 32.0119 46.3648 31.728 48.3491 30.74L49.076 30.3782C49.9172 29.9596 50.9128 29.9956 51.7216 30.4736L52.4779 30.9209C55.2149 32.5398 58.616 32.5398 61.353 30.9209L61.939 30.5743C62.8385 30.0421 63.9613 30.0616 64.8417 30.6244C66.9709 31.9855 69.5448 32.4688 72.0227 31.9726L72.8041 31.8161C74.3404 31.5091 75.7734 32.6837 75.7734 34.2501Z" fill="#F2A8A2"/>
<path d="M72.8045 31.8165L72.0232 31.973C69.5453 32.4691 66.9714 31.9858 64.8422 30.6248C63.9614 30.0619 62.839 30.0424 61.9395 30.5746L61.3535 30.9212C58.6165 32.5401 55.2153 32.5401 52.4784 30.9212L51.7221 30.4739C50.9136 29.9956 49.9177 29.9596 49.0765 30.3785L48.3496 30.7403C46.3653 31.7283 44.104 32.0122 41.9371 31.5455L41.0623 31.357C39.5167 31.0239 38.0576 32.2021 38.0576 33.7833V38.0534C38.4604 37.9471 38.8948 37.9292 39.3365 38.0243L40.3067 38.2333C42.7096 38.7509 45.2172 38.436 47.4174 37.3406L48.2235 36.9392C49.1561 36.4751 50.2603 36.5147 51.1569 37.0452L51.9954 37.5413C55.0301 39.3365 58.8017 39.3365 61.8365 37.5413L62.4865 37.1568C63.4841 36.5665 64.7286 36.5883 65.7054 37.2125C68.0664 38.7218 70.9206 39.2576 73.6681 38.7076L74.5347 38.534C74.9628 38.4482 75.3837 38.4667 75.7742 38.5696V34.2504C75.7736 32.6837 74.3406 31.5091 72.8045 31.8165Z" fill="#EF948C"/>
<path d="M73.6397 82.5928C73.6397 82.5928 68.7272 79.6185 68.3921 79.3607C68.0571 79.1028 56.9157 85.375 56.9157 85.375L46.8521 78.7249L44.3063 80.2031L40.1914 82.5925L28.4386 90.6754C23.4671 94.0944 20.4971 99.7416 20.4971 105.775V113.976C20.4971 115.09 21.4006 115.993 22.5147 115.993H27.243V110.263C27.243 104.23 30.213 98.5823 35.1845 95.1633L39.3539 92.2959C40.059 91.8109 41.021 91.9694 41.5333 92.6544L41.5677 92.7003C42.4504 93.8804 43.648 94.8097 45.0467 95.2738C46.4897 95.7528 48.0016 95.7667 49.4085 95.3385L56.9154 93.0542L64.4232 95.3389C65.0953 95.5432 65.7922 95.6469 66.494 95.6469C68.7262 95.6469 70.8568 94.5799 72.1941 92.7924L77.7222 85.4008L73.6397 82.5928Z" fill="#B3BAFF"/>
<path d="M46.852 76.0615L56.9156 80.996V87.8782L47.9668 90.6014C47.094 90.8671 46.1482 90.5571 45.6019 89.8266L40.1913 82.5924C39.5641 81.754 39.6974 80.5718 40.496 79.8944L44.6967 76.3298C45.2982 75.8198 46.1442 75.7145 46.852 76.0615Z" fill="#F9F7F7"/>
<path d="M66.9791 76.0615L56.9155 80.996V87.8782L65.8643 90.6014C66.7371 90.8671 67.6829 90.5571 68.2292 89.8266L73.6398 82.5924C74.267 81.754 74.1337 80.5718 73.3351 79.8944L69.1344 76.3298C68.5329 75.8198 67.6869 75.7145 66.9791 76.0615Z" fill="#F9F7F7"/>
<path d="M25.1221 137.206L37.1914 125.204C37.5261 124.872 38.0665 124.872 38.4013 125.204L50.4706 137.206C51.0133 137.746 50.631 138.673 49.8655 138.673H43.2982V139.951C43.2982 146.897 45.5106 153.663 49.6146 159.266L51.5458 161.903C52.0588 162.603 51.2936 163.523 50.5112 163.147L45.0924 160.538C37.2683 156.771 32.2938 148.854 32.2938 140.171V138.673H25.7268C24.9613 138.673 24.579 137.746 25.1221 137.206Z" fill="#7B86E9"/>
<path d="M138.038 34.2042L125.969 46.2062C125.634 46.5389 125.094 46.5389 124.759 46.2062L112.69 34.2042C112.147 33.6645 112.529 32.7378 113.295 32.7378H119.862V31.4593C119.862 24.5133 117.65 17.748 113.546 12.1443L111.615 9.50764C111.102 8.80713 111.867 7.8871 112.649 8.26343L118.068 10.8727C125.892 14.6399 130.867 22.5561 130.867 31.2398V32.7378H137.434C138.199 32.7378 138.581 33.6641 138.038 34.2042Z" fill="#7B86E9"/>
</g>
<defs>
<clipPath id="clip0">
<rect width="170" height="170" fill="white"/>
</clipPath>
</defs>
</svg>
