<svg width="159" height="159" viewBox="0 0 159 159" fill="none" xmlns="http://www.w3.org/2000/svg">
<g clip-path="url(#clip0)">
<path d="M127.418 31.3357V153.672C127.418 155.446 125.981 156.883 124.207 156.883H11.5011C9.72714 156.883 8.29004 155.446 8.29004 153.672V5.7305C8.29004 3.95653 9.72714 2.51942 11.5011 2.51942H98.6051L127.418 31.3357Z" fill="#F8F3F2"/>
<path d="M31.8703 143.332C30.0963 143.332 28.6592 141.894 28.6592 140.12V2.51942H11.5011C9.72714 2.51942 8.29004 3.95653 8.29004 5.7305V153.672C8.29004 155.446 9.72714 156.883 11.5011 156.883H124.207C125.981 156.883 127.418 155.446 127.418 153.672V143.332H31.8703Z" fill="#F2EAE7"/>
<path d="M127.418 50.8713C126.303 50.7564 125.172 50.6973 124.027 50.6973C105.906 50.6973 91.1636 65.4399 91.1636 83.561C91.1636 94.1779 96.2259 103.633 104.062 109.645V128.852C104.062 131.09 104.945 133.18 106.55 134.735C108.091 136.229 110.119 137.052 112.259 137.052C113.372 137.052 114.459 136.828 115.489 136.387L124.027 132.728L127.418 134.181V50.8713Z" fill="#F2EAE7"/>
<path d="M137.812 128.851C137.812 130.299 136.331 131.276 135.001 130.705L124.822 126.343C124.315 126.126 123.741 126.126 123.233 126.343L113.054 130.705C111.724 131.275 110.243 130.299 110.243 128.851V88.3819H137.812V128.851H137.812Z" fill="#6876F0"/>
<path d="M127.418 37.3993V31.3357L98.6048 2.51942H92.4824V27.9846C92.4824 33.1634 96.6958 37.3768 101.873 37.3768C111.52 37.3793 126.031 37.3848 127.164 37.3913L127.418 37.3993Z" fill="#F2EAE7"/>
<path d="M97.5997 50.248H26.5607C24.7975 50.248 23.3682 48.8186 23.3682 47.0554V27.9132C23.3682 26.1501 24.7975 24.7207 26.5607 24.7207H97.5997C99.5635 24.7207 101.155 26.3126 101.155 28.2763V46.692C101.155 48.656 99.5635 50.248 97.5997 50.248Z" fill="#7B86E9"/>
<path d="M26.5607 50.248H28.6592V24.721H26.5607C24.7975 24.721 23.3682 26.1504 23.3682 27.9135V47.0558C23.3685 48.8186 24.7975 50.248 26.5607 50.248Z" fill="#6876F0"/>
<path d="M97.5994 24.721H92.4824V27.9846C92.4824 32.9215 96.3122 36.9781 101.155 37.3465V28.2767C101.155 26.3129 99.5632 24.721 97.5994 24.721Z" fill="#6876F0"/>
<path d="M98.6636 2.57722L127.294 31.2111C127.016 31.2019 101.875 31.1957 101.875 31.1957C100.104 31.1957 98.6636 29.7555 98.6636 27.9846V2.57722Z" fill="#F8F3F2"/>
<path d="M110.243 113.389C114.437 115.336 119.107 116.424 124.027 116.424C128.947 116.424 133.617 115.336 137.812 113.389V88.3819H110.243V113.389Z" fill="#6876F0"/>
<path d="M124.027 110.243C138.764 110.243 150.71 98.2971 150.71 83.5607C150.71 68.8243 138.764 56.8781 124.027 56.8781C109.291 56.8781 97.3447 68.8243 97.3447 83.5607C97.3447 98.2971 109.291 110.243 124.027 110.243Z" fill="#FCF0B6"/>
<path d="M132.009 108.366C117.273 108.366 105.327 96.4198 105.327 81.6835C105.327 70.5037 112.207 60.9289 121.96 56.9588C108.192 58.0158 97.3447 69.5209 97.3447 83.5604C97.3447 98.2967 109.291 110.243 124.027 110.243C127.584 110.243 130.979 109.547 134.082 108.284C133.398 108.336 132.706 108.366 132.009 108.366Z" fill="#FBE88C"/>
<path d="M124.027 100.972C133.643 100.972 141.438 93.1765 141.438 83.5607C141.438 73.9449 133.643 66.1498 124.027 66.1498C114.411 66.1498 106.616 73.9449 106.616 83.5607C106.616 93.1765 114.411 100.972 124.027 100.972Z" fill="#FBE372"/>
<path d="M124.62 75.1983L126.934 79.8872C127.03 80.0823 127.216 80.2176 127.432 80.2488L132.606 81.0008C133.148 81.0796 133.365 81.7459 132.973 82.1282L129.228 85.7781C129.072 85.9299 129.001 86.1487 129.038 86.3632L129.922 91.517C130.015 92.0569 129.448 92.4688 128.963 92.2139L124.335 89.7807C124.142 89.6793 123.912 89.6793 123.719 89.7807L119.091 92.2139C118.606 92.4688 118.039 92.0572 118.132 91.517L119.016 86.3632C119.053 86.1487 118.981 85.9299 118.826 85.7781L115.081 82.1282C114.689 81.7459 114.905 81.0796 115.447 81.0008L120.622 80.2488C120.838 80.2176 121.024 80.0823 121.12 79.8872L123.434 75.1983C123.677 74.7069 124.377 74.7069 124.62 75.1983Z" fill="#FDF5CB"/>
<path d="M8.29008 110.472C9.57018 110.472 10.608 109.434 10.608 108.154V5.52899C10.608 5.03636 11.0088 4.63582 11.5015 4.63582H96.3472V27.9834C96.3472 31.0322 98.8277 33.5127 101.876 33.5127H125.102V47.7678C125.102 49.0482 126.139 50.0857 127.42 50.0857C128.7 50.0857 129.737 49.0482 129.737 47.7678V31.1336C129.737 30.5188 129.493 29.9295 129.058 29.4943L100.243 0.678684C99.8083 0.244153 99.2186 0 98.6039 0H11.5015C8.45264 0 5.97217 2.48016 5.97217 5.52899V108.154C5.97217 109.434 7.00997 110.472 8.29008 110.472ZM100.983 27.9834V7.97485L121.885 28.8765H101.876C101.384 28.8768 100.983 28.476 100.983 27.9834Z" fill="#F2EAE7"/>
<path d="M127.419 135.226C126.139 135.226 125.101 136.263 125.101 137.544V153.471C125.101 153.963 124.701 154.364 124.208 154.364H11.5015C11.0088 154.364 10.608 153.963 10.608 153.471V118.032C10.608 116.752 9.57018 115.714 8.29008 115.714C7.00997 115.714 5.97217 116.752 5.97217 118.032V153.471C5.97217 156.52 8.45264 159 11.5015 159H124.208C127.257 159 129.737 156.52 129.737 153.471V137.544C129.737 136.263 128.699 135.226 127.419 135.226Z" fill="#F2EAE7"/>
<path d="M141.527 74.4652C140.935 73.3303 139.535 72.8899 138.399 73.4821C137.265 74.0739 136.824 75.4739 137.416 76.6091C138.547 78.7765 139.12 81.1151 139.12 83.5604C139.12 91.8829 132.349 98.6534 124.027 98.6534C115.705 98.6534 108.934 91.8829 108.934 83.5604C108.934 75.2378 115.705 68.4674 124.027 68.4674C126.622 68.4674 129.187 69.1442 131.444 70.4249C132.557 71.0563 133.973 70.666 134.604 69.5528C135.236 68.4392 134.845 67.0244 133.732 66.3927C130.778 64.717 127.422 63.8315 124.027 63.8315C113.149 63.8315 104.298 72.6819 104.298 83.5604C104.298 94.4388 113.149 103.289 124.027 103.289C134.906 103.289 143.756 94.4388 143.756 83.5604C143.756 80.4065 142.985 77.2612 141.527 74.4652Z" fill="#FFDD40"/>
<path d="M132.94 78.707L128.627 78.0805L126.699 74.1725C126.193 73.1483 125.169 72.512 124.027 72.512C122.885 72.512 121.861 73.1483 121.356 74.1725L119.427 78.0805L115.115 78.707C113.984 78.8711 113.062 79.648 112.71 80.7347C112.357 81.821 112.646 82.9911 113.463 83.7881L116.584 86.8305L115.847 91.126C115.654 92.2519 116.109 93.3682 117.033 94.0395C117.555 94.4187 118.166 94.6112 118.781 94.6112C119.254 94.6112 119.73 94.4972 120.169 94.266L124.027 92.238L127.884 94.266C128.895 94.7973 130.097 94.7104 131.021 94.0395C131.945 93.3682 132.399 92.2516 132.206 91.1257L131.469 86.8308L134.59 83.7888C135.408 82.9914 135.697 81.8213 135.344 80.735C134.992 79.648 134.07 78.8711 132.94 78.707ZM127.611 84.1188C126.909 84.8031 126.588 85.788 126.754 86.7551L127.07 88.6001L125.413 87.7286C124.979 87.5011 124.503 87.3874 124.028 87.3874C123.552 87.3874 123.076 87.5014 122.641 87.7292L120.984 88.6001L121.301 86.756C121.467 85.7893 121.146 84.8034 120.444 84.1188L119.104 82.8118L120.958 82.5426C121.927 82.4011 122.765 81.7919 123.199 80.9133L124.027 79.2348L124.856 80.9136C125.29 81.7926 126.128 82.4011 127.099 82.5426L128.951 82.8118L127.611 84.1188Z" fill="#F0C600"/>
<path d="M103.473 50.248V42.4088C103.473 41.1284 102.436 40.0909 101.156 40.0909C99.8754 40.0909 98.8376 41.1284 98.8376 42.4088V47.9301H47.9224C46.6423 47.9301 45.6045 48.9676 45.6045 50.248C45.6045 51.5284 46.6423 52.5659 47.9224 52.5659H101.156C102.436 52.5659 103.473 51.5284 103.473 50.248Z" fill="#6876F0"/>
<path d="M26.5607 27.0386H82.8643C84.1444 27.0386 85.1822 26.0011 85.1822 24.7207C85.1822 23.4403 84.1444 22.4028 82.8643 22.4028H26.5607C23.5224 22.4028 21.0503 24.8749 21.0503 27.9132V47.0554C21.0503 50.0937 23.5224 52.5659 26.5607 52.5659H38.0155C39.2956 52.5659 40.3335 51.5284 40.3335 50.248C40.3335 48.9676 39.2956 47.9301 38.0155 47.9301H26.5607C26.0786 47.9301 25.6861 47.5376 25.6861 47.0554V27.9132C25.6864 27.4311 26.0786 27.0386 26.5607 27.0386Z" fill="#6876F0"/>
<path d="M23.3687 72.2638H84.2716C85.5518 72.2638 86.5896 71.2263 86.5896 69.9459C86.5896 68.6655 85.5518 67.628 84.2716 67.628H23.3687C22.0886 67.628 21.0508 68.6655 21.0508 69.9459C21.0508 71.2263 22.0883 72.2638 23.3687 72.2638Z" fill="#BDBDBD"/>
<path d="M23.3687 87.7406H84.2716C85.5518 87.7406 86.5896 86.7031 86.5896 85.4227C86.5896 84.1423 85.5518 83.1048 84.2716 83.1048H23.3687C22.0886 83.1048 21.0508 84.1423 21.0508 85.4227C21.0508 86.7031 22.0883 87.7406 23.3687 87.7406Z" fill="#BDBDBD"/>
<path d="M90.1007 98.582H23.3687C22.0886 98.582 21.0508 99.6195 21.0508 100.9C21.0508 102.18 22.0886 103.218 23.3687 103.218H90.1007C91.3808 103.218 92.4186 102.18 92.4186 100.9C92.4186 99.6195 91.3808 98.582 90.1007 98.582Z" fill="#BDBDBD"/>
<path d="M97.345 114.059H23.3687C22.0886 114.059 21.0508 115.097 21.0508 116.377C21.0508 117.657 22.0886 118.695 23.3687 118.695H97.345C98.6251 118.695 99.6629 117.657 99.6629 116.377C99.6629 115.097 98.6251 114.059 97.345 114.059Z" fill="#BDBDBD"/>
<path d="M21.0508 131.854C21.0508 133.135 22.0886 134.172 23.3687 134.172H101.156C102.436 134.172 103.474 133.135 103.474 131.854C103.474 130.574 102.436 129.536 101.156 129.536H23.3687C22.0883 129.536 21.0508 130.574 21.0508 131.854Z" fill="#BDBDBD"/>
</g>
<defs>
<clipPath id="clip0">
<rect width="159" height="159" fill="white"/>
</clipPath>
</defs>
</svg>
