<svg width="223" height="225" viewBox="0 0 223 225" fill="none" xmlns="http://www.w3.org/2000/svg">
<path fill-rule="evenodd" clip-rule="evenodd" d="M191.16 191.449C210.434 171.125 222.289 143.476 222.289 113.012C222.289 50.5973 172.528 0 111.144 0C49.761 0 0 50.5973 0 113.012C0 141.455 10.3336 167.444 27.3917 187.308H3.07927C1.93927 187.308 1.01512 188.232 1.01512 189.372C1.01512 190.512 1.93927 191.436 3.07927 191.436H31.117L31.1289 191.449H191.16ZM89.3485 141.528C93.9275 140.226 98.6872 139.351 103.528 138.92V190.709H117.787V138.938C122.621 139.381 127.371 140.267 131.937 141.576C132.43 141.948 133.002 142.233 133.638 142.405L137.624 143.48C140.444 144.24 143.329 142.436 143.879 139.57L157.866 66.6671C157.904 66.4203 157.931 66.1753 157.947 65.9349C157.983 65.3788 157.959 64.8581 157.876 64.4026C157.793 63.947 157.652 63.5656 157.461 63.28C157.27 62.9944 157.034 62.8103 156.765 62.7382C156.496 62.6661 156.2 62.7074 155.893 62.8596C155.587 63.0119 155.276 63.2723 154.979 63.6258C154.682 63.9793 154.405 64.4191 154.162 64.92C154.109 65.0291 154.058 65.1405 154.009 65.254L132.581 129.013C127.653 127.873 122.585 127.117 117.452 126.759L112.597 37.9748C112.575 37.7586 112.547 37.5458 112.514 37.3379C112.412 36.693 112.263 36.107 112.074 35.6134C111.886 35.1197 111.662 34.7282 111.416 34.461C111.169 34.1939 110.905 34.0564 110.639 34.0564C110.372 34.0564 110.108 34.1939 109.862 34.461C109.616 34.7282 109.392 35.1197 109.203 35.6134C109.015 36.107 108.865 36.693 108.763 37.3379C108.731 37.541 108.704 37.7486 108.682 37.9596L103.827 126.747C98.7691 127.092 93.7722 127.823 88.908 128.928L67.4043 64.9432C67.3737 64.8754 67.3424 64.8084 67.3104 64.7423C67.0678 64.2414 66.79 63.8016 66.4929 63.4481C66.1958 63.0945 65.8852 62.8342 65.5789 62.6819C65.2725 62.5296 64.9764 62.4884 64.7074 62.5605C64.4384 62.6326 64.2018 62.8167 64.0112 63.1023C63.8205 63.3879 63.6795 63.7693 63.5962 64.2248C63.5129 64.6804 63.4889 65.2011 63.5256 65.7572C63.5529 66.1704 63.6133 66.5971 63.7045 67.0238C63.705 67.0263 63.7035 67.0287 63.7011 67.0294C63.7002 67.0296 63.6995 67.0301 63.6989 67.0307C63.6979 67.0318 63.6974 67.0333 63.6977 67.0349L77.5809 139.396C78.1309 142.263 81.0157 144.066 83.8352 143.306L87.822 142.231C88.3843 142.079 88.8966 141.838 89.3485 141.528ZM57.8317 36.4602L57.8318 36.4601L57.8314 36.4589L57.8316 36.4602L57.8317 36.4602Z" fill="white"/>
<rect x="80.3301" y="198.223" width="141.874" height="3.99644" rx="1.99822" fill="white"/>
<rect x="53.9512" y="209.413" width="115.497" height="4.39609" rx="2.19804" fill="white"/>
<rect x="30.3721" y="221.003" width="163.454" height="3.99644" rx="1.99822" fill="white"/>
</svg>
